# Blender v2.79 (sub 0) OBJ File: 'stupid_slope.blend'
# www.blender.org
mtllib stupid_slope.mtl
o Cube
v 0.500000 -0.500000 -0.500000
v 0.500000 -0.500000 0.500000
v -0.500000 -0.500000 0.500000
v -0.500000 -0.500000 -0.500000
v -0.500000 0.500000 0.500000
v -0.500000 0.500000 -0.500000
vn 0.0000 -1.0000 0.0000
vn -0.0000 0.0000 1.0000
vn -1.0000 -0.0000 -0.0000
vn 0.0000 0.0000 -1.0000
vn 0.7071 0.7071 0.0000
usemtl Material
s off
f 1//1 2//1 3//1 4//1
f 2//2 5//2 3//2
f 3//3 5//3 6//3 4//3
f 1//4 4//4 6//4
f 1//5 6//5 5//5 2//5
