# Blender v2.79 (sub 0) OBJ File: 'cali_bear.blend'
# www.blender.org
mtllib cali_bear.mtl
o Bear_Template
v 1.558173 0.555980 0.171203
v 1.475363 0.585875 0.171203
v 1.446449 0.567583 0.171203
v 1.110035 -0.987243 0.171203
v 1.406571 -0.995415 0.171203
v 1.300051 -0.800225 0.171203
v 0.091158 0.880532 0.171203
v -0.113084 -0.293467 0.171203
v 0.392227 -0.377743 0.171203
v 1.113950 -0.450312 0.171203
v 0.934053 -0.106329 0.171203
v 0.754295 -0.683675 0.171203
v -1.162705 0.848929 0.171203
v -1.203565 0.827015 0.171203
v -1.055393 0.884946 0.171203
v -0.174532 -0.450053 0.171203
v 0.122502 -0.635363 0.171203
v -0.237704 -0.609950 0.171203
v 0.067899 -0.692209 0.171203
v -0.168583 -0.726639 0.171203
v -0.007480 -0.842673 0.171203
v 0.268606 -0.843226 0.171203
v 0.265209 -0.799536 0.171203
v 0.253623 -0.845502 0.171203
v 0.273726 -0.840173 0.171203
v 0.256830 -0.767191 0.171203
v 0.196572 -0.847742 0.171203
v 0.160692 -0.732364 0.171203
v 0.093796 -0.706190 0.171203
v -0.099445 -0.838501 0.171203
v 0.232262 -0.527640 0.171203
v 0.340917 -0.423570 0.171203
v -0.495427 -0.311242 0.171203
v -1.328703 0.754359 0.171203
v -1.256289 -0.459828 0.171203
v -1.453049 0.682050 0.171203
v -1.750262 0.318256 0.171203
v -0.498220 -0.315967 0.171203
v -1.179308 -0.526175 0.171203
v -1.002789 -0.685709 0.171203
v -0.501704 -0.344692 0.171203
v -0.750291 -0.901673 0.171203
v -0.503444 -0.768087 0.171203
v -0.791376 -0.875173 0.171203
v -0.710997 -0.916502 0.171203
v -0.665792 -0.923604 0.171203
v -0.526704 -0.930569 0.171203
v -0.211170 -0.873967 0.171203
v -0.204843 -0.867416 0.171203
v -0.211359 -0.862948 0.171203
v -0.280894 -0.904278 0.171203
v -0.365824 -0.812312 0.171203
v -0.367256 -0.939173 0.171203
v -0.841996 -0.832985 0.171203
v -0.503444 -0.539208 0.171203
v -1.826781 -0.214002 0.171203
v -1.271600 -0.477139 0.171203
v -1.490014 -0.639950 0.171203
v -1.299824 -0.518759 0.171203
v -1.719454 -0.735863 0.171203
v -1.928526 -0.534208 0.171203
v -1.946923 -0.577226 0.171203
v -1.879215 -0.384225 0.171203
v -1.337222 -0.577673 0.171203
v -1.725881 -0.741329 0.171203
v -1.967015 -0.614260 0.171203
v -1.993550 -0.756070 0.171203
v -2.002361 -0.674070 0.171203
v -1.899926 -0.888656 0.171203
v -1.985907 -0.815329 0.171203
v -1.979868 -0.842673 0.171203
v -1.684196 -0.919017 0.171203
v -1.543547 -0.908019 0.171203
v -1.612928 -0.801379 0.171203
v -1.521771 -0.886916 0.171203
v -1.499979 -0.861450 0.171203
v -1.533168 -0.842018 0.171203
v -1.692690 -0.760760 0.171203
v -1.824837 -0.930019 0.171203
v -1.689159 -0.721932 0.171203
v -1.788522 0.052119 0.171203
v -1.094583 0.875550 0.171203
v -1.128358 0.864324 0.171203
v -0.936961 0.907514 0.171203
v -0.750515 0.942823 0.171203
v -0.491824 -0.310070 0.171203
v -0.201169 0.858792 0.171203
v -0.297497 -0.300881 0.171203
v -0.055014 0.869670 0.171203
v 0.233365 0.936084 0.171203
v 0.512398 0.980635 0.171203
v 0.375588 0.991619 0.171203
v 0.649209 0.969636 0.171203
v 1.430519 0.559963 0.171203
v 1.036520 0.764808 0.171203
v 1.062571 -0.145967 0.171203
v 1.513519 0.611790 0.171203
v 1.592122 0.516670 0.171203
v 1.611001 0.500498 0.171203
v 1.755931 0.549447 0.171203
v 1.733674 0.543532 0.171203
v 1.778328 0.477429 0.171203
v 1.528639 -0.297570 0.171203
v 1.793260 -0.337950 0.171203
v 1.895050 0.110412 0.171203
v 1.827120 0.365876 0.171203
v 1.909580 0.252550 0.171203
v 1.685604 0.526221 0.171203
v 1.788793 0.441032 0.171203
v 1.799172 0.413188 0.171203
v 1.811310 0.389566 0.171203
v 1.961770 0.180964 0.171203
v 1.740606 -0.363484 0.171203
v 1.906067 -0.278795 0.171203
v 2.013836 -0.021743 0.171203
v 2.115051 -0.164398 0.171203
v 2.132600 -0.153916 0.171203
v 1.377157 -0.812553 0.171203
v 1.421260 -0.819363 0.171203
v 1.487968 -0.951449 0.171203
v 1.450638 -0.826932 0.171203
v 1.476776 -0.839363 0.171203
v 1.511103 -0.860794 0.171203
v 1.545414 -0.919035 0.171203
v 1.552122 -0.888623 0.171203
v 1.569241 -0.902881 0.171203
v 1.446449 0.567583 -0.181900
v 1.475363 0.585875 -0.181900
v 1.558173 0.555980 -0.181900
v 1.300051 -0.800225 -0.181900
v 1.406571 -0.995415 -0.181900
v 1.110035 -0.987243 -0.181900
v 0.392227 -0.377743 -0.181900
v -0.113084 -0.293467 -0.181900
v 0.091158 0.880532 -0.181900
v 0.754295 -0.683675 -0.181900
v 0.934053 -0.106329 -0.181900
v 1.113950 -0.450312 -0.181900
v -1.055393 0.884946 -0.181900
v -1.203565 0.827015 -0.181900
v -1.162705 0.848929 -0.181900
v 0.122502 -0.635363 -0.181900
v -0.174532 -0.450053 -0.181900
v 0.067899 -0.692209 -0.181900
v -0.237704 -0.609950 -0.181900
v -0.168583 -0.726639 -0.181900
v -0.007480 -0.842673 -0.181900
v 0.253623 -0.845502 -0.181900
v 0.265209 -0.799536 -0.181900
v 0.268606 -0.843226 -0.181900
v 0.273726 -0.840173 -0.181900
v 0.196572 -0.847742 -0.181900
v 0.256830 -0.767191 -0.181900
v 0.160692 -0.732364 -0.181900
v 0.093796 -0.706190 -0.181900
v -0.099445 -0.838501 -0.181900
v 0.232262 -0.527640 -0.181900
v 0.340917 -0.423570 -0.181900
v -1.328703 0.754359 -0.181900
v -0.495427 -0.311242 -0.181900
v -1.453049 0.682050 -0.181900
v -1.256289 -0.459828 -0.181900
v -1.750262 0.318256 -0.181900
v -0.498220 -0.315967 -0.181900
v -0.501704 -0.344692 -0.181900
v -1.002789 -0.685709 -0.181900
v -1.179308 -0.526175 -0.181900
v -0.791376 -0.875173 -0.181900
v -0.503444 -0.768087 -0.181900
v -0.750291 -0.901673 -0.181900
v -0.665792 -0.923604 -0.181900
v -0.710997 -0.916502 -0.181900
v -0.526704 -0.930569 -0.181900
v -0.211359 -0.862948 -0.181900
v -0.204843 -0.867416 -0.181900
v -0.211170 -0.873967 -0.181900
v -0.280894 -0.904278 -0.181900
v -0.365824 -0.812312 -0.181900
v -0.367256 -0.939173 -0.181900
v -0.841996 -0.832985 -0.181900
v -0.503444 -0.539208 -0.181900
v -1.271600 -0.477139 -0.181900
v -1.826781 -0.214002 -0.181900
v -1.299824 -0.518759 -0.181900
v -1.490014 -0.639950 -0.181900
v -1.946923 -0.577226 -0.181900
v -1.928526 -0.534208 -0.181900
v -1.719454 -0.735863 -0.181900
v -1.879215 -0.384225 -0.181900
v -1.337222 -0.577673 -0.181900
v -1.967015 -0.614260 -0.181900
v -1.725881 -0.741329 -0.181900
v -2.002361 -0.674070 -0.181900
v -1.993550 -0.756070 -0.181900
v -1.899926 -0.888656 -0.181900
v -1.979868 -0.842673 -0.181900
v -1.985907 -0.815329 -0.181900
v -1.612928 -0.801379 -0.181900
v -1.543547 -0.908019 -0.181900
v -1.684196 -0.919017 -0.181900
v -1.533168 -0.842018 -0.181900
v -1.499979 -0.861450 -0.181900
v -1.521771 -0.886916 -0.181900
v -1.692690 -0.760760 -0.181900
v -1.824837 -0.930019 -0.181900
v -1.689159 -0.721932 -0.181900
v -1.788522 0.052119 -0.181900
v -1.128358 0.864324 -0.181900
v -1.094583 0.875550 -0.181900
v -0.936961 0.907514 -0.181900
v -0.750515 0.942823 -0.181900
v -0.491824 -0.310070 -0.181900
v -0.201169 0.858792 -0.181900
v -0.297497 -0.300881 -0.181900
v -0.055014 0.869670 -0.181900
v 0.233365 0.936084 -0.181900
v 0.375588 0.991619 -0.181900
v 0.512398 0.980635 -0.181900
v 0.649209 0.969636 -0.181900
v 1.036520 0.764808 -0.181900
v 1.430519 0.559963 -0.181900
v 1.062571 -0.145967 -0.181900
v 1.513519 0.611790 -0.181900
v 1.611001 0.500498 -0.181900
v 1.592122 0.516670 -0.181900
v 1.778328 0.477429 -0.181900
v 1.733674 0.543532 -0.181900
v 1.755931 0.549447 -0.181900
v 1.895050 0.110412 -0.181900
v 1.793260 -0.337950 -0.181900
v 1.528639 -0.297570 -0.181900
v 1.909580 0.252550 -0.181900
v 1.827120 0.365876 -0.181900
v 1.788793 0.441032 -0.181900
v 1.685604 0.526221 -0.181900
v 1.799172 0.413188 -0.181900
v 1.811310 0.389566 -0.181900
v 1.961770 0.180964 -0.181900
v 1.740606 -0.363484 -0.181900
v 1.906067 -0.278795 -0.181900
v 2.013836 -0.021743 -0.181900
v 2.132600 -0.153916 -0.181900
v 2.115051 -0.164398 -0.181900
v 1.377157 -0.812553 -0.181900
v 1.421260 -0.819363 -0.181900
v 1.487968 -0.951449 -0.181900
v 1.450638 -0.826932 -0.181900
v 1.476776 -0.839363 -0.181900
v 1.511103 -0.860794 -0.181900
v 1.552122 -0.888623 -0.181900
v 1.545414 -0.919035 -0.181900
v 1.569241 -0.902881 -0.181900
vn 0.0000 0.0000 1.0000
vn 0.0000 0.0000 -1.0000
vn -0.0275 -0.9996 0.0000
vn -0.6491 -0.7607 0.0000
vn -0.6454 -0.7638 0.0000
vn 0.6661 -0.7458 0.0000
vn 0.6917 -0.7222 0.0000
vn 0.7005 -0.7137 0.0000
vn 0.7212 -0.6927 0.0000
vn 0.4751 0.8800 0.0000
vn 0.3644 0.9313 0.0000
vn 0.3406 0.9402 0.0000
vn 0.9680 0.2508 0.0000
vn 0.9787 0.2051 0.0000
vn 0.5122 -0.8589 0.0000
vn 0.1502 -0.9887 0.0000
vn 0.0392 -0.9992 0.0000
vn -0.0248 -0.9997 0.0000
vn -0.0453 -0.9990 0.0000
vn -0.8506 -0.5257 0.0000
vn -0.8604 -0.5097 0.0000
vn -0.9300 0.3674 0.0000
vn -0.9309 0.3653 0.0000
vn 0.0402 -0.9992 0.0000
vn 0.0472 -0.9989 0.0000
vn 0.3094 -0.9509 0.0000
vn 0.8608 -0.5089 0.0000
vn 0.9927 -0.1204 0.0000
vn 1.0000 -0.0089 0.0000
vn 1.0000 0.0000 0.0000
vn 0.3059 0.9520 0.0000
vn 0.3115 0.9502 0.0000
vn 0.5654 0.8248 0.0000
vn 0.7193 -0.6947 0.0000
vn 0.3987 -0.9171 0.0000
vn 0.3746 -0.9272 0.0000
vn -0.0539 -0.9985 0.0000
vn -0.0500 -0.9987 0.0000
vn -0.1552 -0.9879 0.0000
vn -0.3531 -0.9356 0.0000
vn -0.5420 -0.8404 0.0000
vn -0.6402 -0.7682 0.0000
vn -0.6754 -0.7374 0.0000
vn -0.6705 -0.7419 0.0000
vn -0.6528 -0.7575 0.0000
vn 0.7491 -0.6625 0.0000
vn 0.8276 -0.5613 0.0000
vn 0.8443 -0.5359 0.0000
vn 0.3774 -0.9260 0.0000
vn 0.3807 -0.9247 0.0000
vn 0.4178 -0.9085 0.0000
vn 0.6478 -0.7618 0.0000
vn 0.5052 0.8630 0.0000
vn 0.4538 0.8911 0.0000
vn 0.4540 0.8910 0.0000
vn 0.7598 -0.6502 0.0000
vn 0.6959 -0.7181 0.0000
vn 0.0780 -0.9970 0.0000
vn -0.4825 -0.8759 0.0000
vn -0.4986 -0.8668 0.0000
vn -0.9765 -0.2157 0.0000
vn -0.9918 -0.1279 0.0000
vn -0.9943 -0.1068 0.0000
vn -0.8609 0.5088 0.0000
vn -0.8790 0.4769 0.0000
vn -0.9194 0.3932 0.0000
vn -0.9500 0.3123 0.0000
vn -0.9557 0.2944 0.0000
vn -0.9898 0.1423 0.0000
vn -0.7744 0.6327 0.0000
vn -0.5027 0.8645 0.0000
vn -0.5021 0.8648 0.0000
vn -0.4726 0.8813 0.0000
vn -0.4090 0.9125 0.0000
vn -0.3154 0.9490 0.0000
vn -0.2331 0.9724 0.0000
vn -0.1872 0.9823 0.0000
vn -0.1861 0.9825 0.0000
vn 0.1512 0.9885 0.0000
vn -0.0742 0.9972 0.0000
vn -0.0741 0.9973 0.0000
vn -0.3639 0.9315 0.0000
vn -0.3637 0.9315 0.0000
vn 0.0800 0.9968 0.0000
vn 0.0801 0.9968 0.0000
vn 0.4675 0.8840 0.0000
vn 0.4613 0.8872 0.0000
vn -0.4315 0.9021 0.0000
vn -0.5346 0.8451 0.0000
vn -0.5618 0.8272 0.0000
vn 0.7808 0.6248 0.0000
vn 0.7568 0.6536 0.0000
vn 0.6506 0.7595 0.0000
vn -0.3260 0.9454 0.0000
vn -0.3388 0.9409 0.0000
vn -0.2568 0.9665 0.0000
vn 0.9549 0.2970 0.0000
vn 0.9611 0.2763 0.0000
vn 0.9370 0.3493 0.0000
vn 0.8894 0.4570 0.0000
vn 0.8318 0.5551 0.0000
vn 0.8086 0.5884 0.0000
vn 0.8081 0.5891 0.0000
vn 0.7266 -0.6871 0.0000
vn 0.7437 0.6685 0.0000
vn 0.7438 0.6684 0.0000
vn 0.5128 -0.8585 0.0000
vn 0.4802 -0.8772 0.0000
vn 0.4644 -0.8856 0.0000
vn 0.4363 -0.8998 0.0000
vn -0.2969 -0.9549 0.0000
vn -0.3093 -0.9510 0.0000
vn -0.2947 -0.9556 0.0000
vn 0.8861 0.4634 0.0000
vn 0.8829 0.4696 0.0000
vn 0.1579 0.9875 0.0000
vn 0.1526 0.9883 0.0000
vn 0.2495 0.9684 0.0000
vn 0.4295 0.9031 0.0000
vn 0.5296 0.8483 0.0000
vn 0.5614 0.8275 0.0000
vn 0.6400 0.7684 0.0000
vn 0.5612 -0.8277 0.0000
vn 0.4914 -0.8709 0.0000
vn 0.4752 -0.8799 0.0000
usemtl None
s off
f 1//1 2//1 3//1
f 4//1 5//1 6//1
f 7//1 8//1 9//1
f 10//1 11//1 12//1
f 13//1 14//1 15//1
f 16//1 17//1 8//1
f 18//1 19//1 16//1
f 18//1 20//1 19//1
f 19//1 20//1 21//1
f 22//1 23//1 24//1
f 22//1 25//1 23//1
f 26//1 27//1 23//1
f 24//1 23//1 27//1
f 27//1 26//1 28//1
f 21//1 27//1 28//1
f 29//1 21//1 28//1
f 29//1 19//1 21//1
f 21//1 20//1 30//1
f 16//1 19//1 17//1
f 8//1 17//1 31//1
f 32//1 8//1 31//1
f 32//1 9//1 8//1
f 33//1 14//1 34//1
f 35//1 34//1 36//1
f 37//1 35//1 36//1
f 33//1 35//1 38//1
f 39//1 40//1 41//1
f 42//1 43//1 44//1
f 45//1 46//1 43//1
f 43//1 46//1 47//1
f 48//1 49//1 50//1
f 51//1 48//1 50//1
f 52//1 51//1 50//1
f 52//1 53//1 51//1
f 52//1 47//1 53//1
f 52//1 43//1 47//1
f 42//1 45//1 43//1
f 44//1 43//1 54//1
f 54//1 43//1 55//1
f 40//1 54//1 55//1
f 41//1 40//1 55//1
f 38//1 39//1 41//1
f 38//1 35//1 39//1
f 56//1 57//1 35//1
f 58//1 59//1 56//1
f 60//1 61//1 62//1
f 56//1 63//1 58//1
f 64//1 59//1 58//1
f 65//1 62//1 66//1
f 67//1 66//1 68//1
f 67//1 69//1 65//1
f 70//1 71//1 69//1
f 72//1 73//1 74//1
f 75//1 76//1 77//1
f 73//1 75//1 77//1
f 74//1 73//1 77//1
f 78//1 72//1 74//1
f 78//1 79//1 72//1
f 78//1 65//1 79//1
f 65//1 69//1 79//1
f 70//1 69//1 67//1
f 65//1 66//1 67//1
f 60//1 62//1 65//1
f 80//1 61//1 60//1
f 80//1 63//1 61//1
f 80//1 58//1 63//1
f 59//1 57//1 56//1
f 56//1 35//1 81//1
f 81//1 35//1 37//1
f 33//1 34//1 35//1
f 13//1 82//1 83//1
f 13//1 15//1 82//1
f 14//1 33//1 15//1
f 15//1 33//1 84//1
f 84//1 33//1 85//1
f 85//1 33//1 86//1
f 87//1 85//1 86//1
f 88//1 87//1 86//1
f 88//1 8//1 87//1
f 87//1 8//1 89//1
f 89//1 8//1 7//1
f 7//1 11//1 90//1
f 90//1 91//1 92//1
f 90//1 11//1 91//1
f 91//1 11//1 93//1
f 11//1 94//1 95//1
f 11//1 96//1 94//1
f 7//1 9//1 11//1
f 1//1 97//1 2//1
f 98//1 94//1 99//1
f 1//1 3//1 98//1
f 100//1 101//1 102//1
f 98//1 3//1 94//1
f 103//1 104//1 105//1
f 106//1 105//1 107//1
f 102//1 108//1 109//1
f 102//1 101//1 108//1
f 109//1 108//1 99//1
f 110//1 109//1 99//1
f 111//1 110//1 99//1
f 106//1 111//1 99//1
f 106//1 99//1 105//1
f 112//1 107//1 105//1
f 103//1 113//1 104//1
f 105//1 104//1 114//1
f 114//1 115//1 105//1
f 116//1 117//1 115//1
f 114//1 116//1 115//1
f 99//1 103//1 105//1
f 118//1 6//1 5//1
f 99//1 96//1 103//1
f 11//1 9//1 12//1
f 94//1 96//1 99//1
f 12//1 4//1 10//1
f 93//1 11//1 95//1
f 4//1 6//1 10//1
f 118//1 5//1 119//1
f 119//1 5//1 120//1
f 121//1 119//1 120//1
f 122//1 121//1 120//1
f 120//1 123//1 122//1
f 124//1 125//1 123//1
f 124//1 126//1 125//1
f 120//1 124//1 123//1
f 127//2 128//2 129//2
f 130//2 131//2 132//2
f 133//2 134//2 135//2
f 136//2 137//2 138//2
f 139//2 140//2 141//2
f 134//2 142//2 143//2
f 143//2 144//2 145//2
f 144//2 146//2 145//2
f 147//2 146//2 144//2
f 148//2 149//2 150//2
f 149//2 151//2 150//2
f 149//2 152//2 153//2
f 152//2 149//2 148//2
f 154//2 153//2 152//2
f 154//2 152//2 147//2
f 154//2 147//2 155//2
f 147//2 144//2 155//2
f 156//2 146//2 147//2
f 142//2 144//2 143//2
f 157//2 142//2 134//2
f 157//2 134//2 158//2
f 134//2 133//2 158//2
f 159//2 140//2 160//2
f 161//2 159//2 162//2
f 161//2 162//2 163//2
f 164//2 162//2 160//2
f 165//2 166//2 167//2
f 168//2 169//2 170//2
f 169//2 171//2 172//2
f 173//2 171//2 169//2
f 174//2 175//2 176//2
f 174//2 176//2 177//2
f 174//2 177//2 178//2
f 177//2 179//2 178//2
f 179//2 173//2 178//2
f 173//2 169//2 178//2
f 169//2 172//2 170//2
f 180//2 169//2 168//2
f 181//2 169//2 180//2
f 181//2 180//2 166//2
f 181//2 166//2 165//2
f 165//2 167//2 164//2
f 167//2 162//2 164//2
f 162//2 182//2 183//2
f 183//2 184//2 185//2
f 186//2 187//2 188//2
f 185//2 189//2 183//2
f 185//2 184//2 190//2
f 191//2 186//2 192//2
f 193//2 191//2 194//2
f 192//2 195//2 194//2
f 195//2 196//2 197//2
f 198//2 199//2 200//2
f 201//2 202//2 203//2
f 201//2 203//2 199//2
f 201//2 199//2 198//2
f 198//2 200//2 204//2
f 200//2 205//2 204//2
f 205//2 192//2 204//2
f 205//2 195//2 192//2
f 194//2 195//2 197//2
f 194//2 191//2 192//2
f 192//2 186//2 188//2
f 188//2 187//2 206//2
f 187//2 189//2 206//2
f 189//2 185//2 206//2
f 183//2 182//2 184//2
f 207//2 162//2 183//2
f 163//2 162//2 207//2
f 162//2 159//2 160//2
f 208//2 209//2 141//2
f 209//2 139//2 141//2
f 139//2 160//2 140//2
f 210//2 160//2 139//2
f 211//2 160//2 210//2
f 212//2 160//2 211//2
f 212//2 211//2 213//2
f 212//2 213//2 214//2
f 213//2 134//2 214//2
f 215//2 134//2 213//2
f 135//2 134//2 215//2
f 216//2 137//2 135//2
f 217//2 218//2 216//2
f 218//2 137//2 216//2
f 219//2 137//2 218//2
f 220//2 221//2 137//2
f 221//2 222//2 137//2
f 137//2 133//2 135//2
f 128//2 223//2 129//2
f 224//2 221//2 225//2
f 225//2 127//2 129//2
f 226//2 227//2 228//2
f 221//2 127//2 225//2
f 229//2 230//2 231//2
f 232//2 229//2 233//2
f 234//2 235//2 226//2
f 235//2 227//2 226//2
f 224//2 235//2 234//2
f 224//2 234//2 236//2
f 224//2 236//2 237//2
f 224//2 237//2 233//2
f 229//2 224//2 233//2
f 229//2 232//2 238//2
f 230//2 239//2 231//2
f 240//2 230//2 229//2
f 229//2 241//2 240//2
f 241//2 242//2 243//2
f 241//2 243//2 240//2
f 229//2 231//2 224//2
f 131//2 130//2 244//2
f 231//2 222//2 224//2
f 136//2 133//2 137//2
f 224//2 222//2 221//2
f 138//2 132//2 136//2
f 220//2 137//2 219//2
f 138//2 130//2 132//2
f 245//2 131//2 244//2
f 246//2 131//2 245//2
f 246//2 245//2 247//2
f 246//2 247//2 248//2
f 248//2 249//2 246//2
f 249//2 250//2 251//2
f 250//2 252//2 251//2
f 249//2 251//2 246//2
f 4//3 131//3 5//3
f 4//3 132//3 131//3
f 12//4 132//4 4//4
f 12//4 136//4 132//4
f 9//5 136//5 12//5
f 9//5 133//5 136//5
f 32//6 133//6 9//6
f 32//6 158//6 133//6
f 31//7 158//7 32//7
f 31//7 157//7 158//7
f 17//8 157//8 31//8
f 17//8 142//8 157//8
f 19//9 142//9 17//9
f 19//9 144//9 142//9
f 29//10 144//10 19//10
f 29//10 155//10 144//10
f 28//11 155//11 29//11
f 28//11 154//11 155//11
f 26//12 154//12 28//12
f 26//12 153//12 154//12
f 23//13 153//13 26//13
f 23//13 149//13 153//13
f 25//14 149//14 23//14
f 25//14 151//14 149//14
f 22//15 151//15 25//15
f 22//15 150//15 151//15
f 24//16 150//16 22//16
f 24//16 148//16 150//16
f 27//17 148//17 24//17
f 27//17 152//17 148//17
f 21//18 152//18 27//18
f 21//18 147//18 152//18
f 30//19 147//19 21//19
f 30//19 156//19 147//19
f 20//20 156//20 30//20
f 20//20 146//20 156//20
f 18//21 146//21 20//21
f 18//21 145//21 146//21
f 16//22 145//22 18//22
f 16//22 143//22 145//22
f 8//23 143//23 16//23
f 8//23 134//23 143//23
f 88//24 134//24 8//24
f 88//24 214//24 134//24
f 86//25 214//25 88//25
f 86//25 212//25 214//25
f 33//26 212//26 86//26
f 33//26 160//26 212//26
f 38//27 160//27 33//27
f 38//27 164//27 160//27
f 41//28 164//28 38//28
f 41//28 165//28 164//28
f 55//29 165//29 41//29
f 55//29 181//29 165//29
f 43//30 181//30 55//30
f 43//30 169//30 181//30
f 52//31 169//31 43//31
f 52//31 178//31 169//31
f 50//32 178//32 52//32
f 50//32 174//32 178//32
f 49//33 174//33 50//33
f 49//33 175//33 174//33
f 48//34 175//34 49//34
f 48//34 176//34 175//34
f 51//35 176//35 48//35
f 51//35 177//35 176//35
f 53//36 177//36 51//36
f 53//36 179//36 177//36
f 47//37 179//37 53//37
f 47//37 173//37 179//37
f 46//38 173//38 47//38
f 46//38 171//38 173//38
f 45//39 171//39 46//39
f 45//39 172//39 171//39
f 42//40 172//40 45//40
f 42//40 170//40 172//40
f 44//41 170//41 42//41
f 44//41 168//41 170//41
f 54//42 168//42 44//42
f 54//42 180//42 168//42
f 40//43 180//43 54//43
f 40//43 166//43 180//43
f 39//44 166//44 40//44
f 39//44 167//44 166//44
f 35//45 167//45 39//45
f 35//45 162//45 167//45
f 57//46 162//46 35//46
f 57//46 182//46 162//46
f 59//47 182//47 57//47
f 59//47 184//47 182//47
f 64//48 184//48 59//48
f 64//48 190//48 184//48
f 58//49 190//49 64//49
f 58//49 185//49 190//49
f 80//50 185//50 58//50
f 80//50 206//50 185//50
f 60//51 206//51 80//51
f 60//51 188//51 206//51
f 65//52 188//52 60//52
f 65//52 192//52 188//52
f 78//53 192//53 65//53
f 78//53 204//53 192//53
f 74//54 204//54 78//54
f 74//54 198//54 204//54
f 77//55 198//55 74//55
f 77//55 201//55 198//55
f 76//53 201//53 77//53
f 76//53 202//53 201//53
f 75//56 202//56 76//56
f 75//56 203//56 202//56
f 73//57 203//57 75//57
f 73//57 199//57 203//57
f 72//58 199//58 73//58
f 72//58 200//58 199//58
f 79//58 200//58 72//58
f 79//58 205//58 200//58
f 69//59 205//59 79//59
f 69//59 195//59 205//59
f 71//60 195//60 69//60
f 71//60 196//60 195//60
f 70//61 196//61 71//61
f 70//61 197//61 196//61
f 67//62 197//62 70//62
f 67//62 194//62 197//62
f 68//63 194//63 67//63
f 68//63 193//63 194//63
f 66//64 193//64 68//64
f 66//64 191//64 193//64
f 62//65 191//65 66//65
f 62//65 186//65 191//65
f 61//66 186//66 62//66
f 61//66 187//66 186//66
f 63//67 187//67 61//67
f 63//67 189//67 187//67
f 56//68 189//68 63//68
f 56//68 183//68 189//68
f 81//69 183//69 56//69
f 81//69 207//69 183//69
f 37//69 207//69 81//69
f 37//69 163//69 207//69
f 36//70 163//70 37//70
f 36//70 161//70 163//70
f 34//71 161//71 36//71
f 34//71 159//71 161//71
f 14//72 159//72 34//72
f 14//72 140//72 159//72
f 13//73 140//73 14//73
f 13//73 141//73 140//73
f 83//74 141//74 13//74
f 83//74 208//74 141//74
f 82//75 208//75 83//75
f 82//75 209//75 208//75
f 15//76 209//76 82//76
f 15//76 139//76 209//76
f 84//77 139//77 15//77
f 84//77 210//77 139//77
f 85//78 210//78 84//78
f 85//78 211//78 210//78
f 87//79 211//79 85//79
f 87//79 213//79 211//79
f 89//80 213//80 87//80
f 89//80 215//80 213//80
f 7//81 215//81 89//81
f 7//81 135//81 215//81
f 90//82 135//82 7//82
f 90//82 216//82 135//82
f 92//83 216//83 90//83
f 92//83 217//83 216//83
f 91//84 217//84 92//84
f 91//84 218//84 217//84
f 93//85 218//85 91//85
f 93//85 219//85 218//85
f 95//86 219//86 93//86
f 95//86 220//86 219//86
f 94//87 220//87 95//87
f 94//87 221//87 220//87
f 3//88 221//88 94//88
f 3//88 127//88 221//88
f 2//89 127//89 3//89
f 2//89 128//89 127//89
f 97//90 128//90 2//90
f 97//90 223//90 128//90
f 1//91 223//91 97//91
f 1//91 129//91 223//91
f 98//92 129//92 1//92
f 98//92 225//92 129//92
f 99//93 225//93 98//93
f 99//93 224//93 225//93
f 108//94 224//94 99//94
f 108//94 235//94 224//94
f 101//95 235//95 108//95
f 101//95 227//95 235//95
f 100//96 227//96 101//96
f 100//96 228//96 227//96
f 102//97 228//97 100//97
f 102//97 226//97 228//97
f 109//98 226//98 102//98
f 109//98 234//98 226//98
f 110//99 234//99 109//99
f 110//99 236//99 234//99
f 111//100 236//100 110//100
f 111//100 237//100 236//100
f 106//101 237//101 111//101
f 106//101 233//101 237//101
f 107//102 233//102 106//102
f 107//102 232//102 233//102
f 112//103 232//103 107//103
f 112//103 238//103 232//103
f 105//104 238//104 112//104
f 105//104 229//104 238//104
f 115//105 229//105 105//105
f 115//105 241//105 229//105
f 117//106 241//106 115//106
f 117//106 242//106 241//106
f 116//107 242//107 117//107
f 116//107 243//107 242//107
f 114//108 243//108 116//108
f 114//108 240//108 243//108
f 104//109 240//109 114//109
f 104//109 230//109 240//109
f 113//110 230//110 104//110
f 113//110 239//110 230//110
f 103//111 239//111 113//111
f 103//111 231//111 239//111
f 96//112 231//112 103//112
f 96//112 222//112 231//112
f 11//113 222//113 96//113
f 11//113 137//113 222//113
f 10//114 137//114 11//114
f 10//114 138//114 137//114
f 6//115 138//115 10//115
f 6//115 130//115 138//115
f 118//116 130//116 6//116
f 118//116 244//116 130//116
f 119//117 244//117 118//117
f 119//117 245//117 244//117
f 121//118 245//118 119//118
f 121//118 247//118 245//118
f 122//119 247//119 121//119
f 122//119 248//119 247//119
f 123//120 248//120 122//120
f 123//120 249//120 248//120
f 125//121 249//121 123//121
f 125//121 250//121 249//121
f 126//122 250//122 125//122
f 126//122 252//122 250//122
f 124//123 252//123 126//123
f 124//123 251//123 252//123
f 120//124 251//124 124//124
f 120//124 246//124 251//124
f 5//125 246//125 120//125
f 5//125 131//125 246//125
