# Blender v2.79 (sub 0) OBJ File: 'octo_hut_roof.blend'
# www.blender.org
mtllib octo_hut_roof.mtl
o Octo_Hut_Roof
v 2.625000 1.000000 -4.546630
v 0.000000 9.000000 0.000000
v 5.250000 1.000000 0.000000
v -3.727720 2.000000 1.500000
v -3.937500 3.000000 0.000000
v -2.625000 1.000000 4.546630
v -4.383970 1.000000 1.500000
v -3.727720 2.000000 -1.500000
v -2.625000 1.000000 -4.546630
v -4.383970 1.000000 -1.500000
v 2.625000 1.000000 4.546630
v 4.501880 1.000000 0.000000
v 2.250940 1.000000 3.898740
v -2.250940 1.000000 3.898740
v -3.635850 1.000000 1.500000
v 2.250940 1.000000 -3.898740
v -2.250940 1.000000 -3.898740
v -3.635850 1.000000 -1.500000
v 0.000000 7.860000 0.000000
v -3.000000 2.097250 1.354130
v -3.189380 3.000000 0.000000
v -3.000000 1.968910 1.500000
v -3.000000 2.097250 -1.354130
v -3.000000 1.968910 -1.500000
v -3.000000 2.000000 1.500000
v -3.000000 2.000000 -1.500000
vn 0.7529 0.4941 -0.4347
vn -0.7529 0.4941 0.4347
vn -0.7529 0.4941 -0.4347
vn 0.0000 0.4941 -0.8694
vn 0.0000 -1.0000 0.0000
vn 0.0000 0.4941 0.8694
vn 0.7529 0.4941 0.4347
vn -0.7529 -0.4941 0.4347
vn 0.7529 -0.4941 -0.4347
vn 0.7530 -0.4941 -0.4347
vn 0.7530 -0.4941 0.4347
vn 0.7529 -0.4941 0.4347
vn 0.0000 -0.4941 0.8694
vn 0.0000 -0.4941 -0.8694
vn -0.7529 -0.4941 -0.4347
vn 0.0000 -0.8320 -0.5547
vn 0.0000 -0.8321 -0.5547
vn -1.0000 0.0000 0.0000
vn 0.0000 -0.8321 0.5547
vn 0.0000 -0.8320 0.5547
vn 0.0000 0.0000 1.0000
vn 0.0000 0.0000 -1.0000
usemtl Material.002
s off
f 1//1 2//1 3//1
f 4//2 2//2 5//2
f 2//2 4//2 6//2
f 7//2 6//2 4//2
f 8//3 9//3 10//3
f 2//3 8//3 5//3
f 8//3 2//3 9//3
f 1//4 9//4 2//4
f 11//5 12//5 3//5
f 11//5 13//5 12//5
f 11//5 14//5 13//5
f 6//5 14//5 11//5
f 6//5 15//5 14//5
f 15//5 6//5 7//5
f 12//5 1//5 3//5
f 16//5 1//5 12//5
f 17//5 1//5 16//5
f 17//5 9//5 1//5
f 18//5 9//5 17//5
f 9//5 18//5 10//5
f 2//6 6//6 11//6
f 3//7 2//7 11//7
f 16//8 12//8 19//8
f 19//9 20//9 21//9
f 14//9 20//9 19//9
f 22//9 14//9 15//9
f 20//10 14//10 22//10
f 17//11 23//11 24//11
f 19//12 23//12 17//12
f 23//12 19//12 21//12
f 17//12 24//12 18//12
f 16//13 19//13 17//13
f 19//14 13//14 14//14
f 12//15 13//15 19//15
f 4//16 20//16 25//16
f 20//17 4//17 21//17
f 21//17 4//17 5//17
f 25//18 20//18 22//18
f 26//18 24//18 23//18
f 8//19 23//19 21//19
f 23//20 8//20 26//20
f 8//19 21//19 5//19
f 8//21 24//21 26//21
f 18//21 8//21 10//21
f 8//21 18//21 24//21
f 22//22 4//22 25//22
f 15//22 4//22 22//22
f 4//22 15//22 7//22
