# Blender v2.79 (sub 0) OBJ File: 'rothenburg_template.blend'
# www.blender.org
mtllib rothenburg_10_5_roof.mtl
o Rothenburg_Roof
v -0.500000 7.100000 -2.500000
v -0.500000 3.100000 -5.500000
v -0.500000 3.100000 -4.900000
v -0.500000 8.100000 -2.500000
v -0.500000 3.100000 0.500000
v -0.500000 3.100000 -0.100000
v 10.500000 8.100000 -2.500000
v 10.500000 3.100000 0.500000
v 10.500000 3.100000 -5.500000
v 10.000000 3.100000 -0.100000
v 10.500000 3.100000 -0.100000
v 0.000000 3.100000 -0.100000
v 10.000000 3.100000 -4.900000
v 10.500000 3.100000 -4.900000
v 0.000000 3.100000 -4.900000
v 10.500000 7.100000 -2.500000
v 10.000000 7.100000 -2.500000
v 0.000000 7.100000 -2.500000
vn -1.0000 0.0000 0.0000
vn 0.0000 0.5145 0.8575
vn 0.0000 0.5145 -0.8575
vn 0.0000 -1.0000 0.0000
vn 1.0000 0.0000 0.0000
vn 0.0000 -0.5145 -0.8575
vn 0.0000 -0.5145 0.8575
usemtl Material
s off
f 1//1 2//1 3//1
f 1//1 4//1 2//1
f 5//1 1//1 6//1
f 1//1 5//1 4//1
f 5//2 7//2 4//2
f 7//2 5//2 8//2
f 9//3 4//3 7//3
f 4//3 9//3 2//3
f 8//4 10//4 11//4
f 8//4 12//4 10//4
f 5//4 12//4 8//4
f 12//4 5//4 6//4
f 13//4 9//4 14//4
f 13//4 15//4 9//4
f 2//4 15//4 3//4
f 15//4 2//4 9//4
f 16//5 9//5 7//5
f 9//5 16//5 14//5
f 8//5 16//5 7//5
f 16//5 8//5 11//5
f 11//6 17//6 16//6
f 17//6 11//6 10//6
f 13//7 16//7 17//7
f 16//7 13//7 14//7
f 12//6 1//6 18//6
f 1//6 12//6 6//6
f 3//7 18//7 1//7
f 18//7 3//7 15//7
usemtl Material.002
f 10//4 12//4 13//4
f 15//4 13//4 12//4
f 13//5 17//5 10//5
f 18//1 15//1 12//1
