# Blender v2.79 (sub 0) OBJ File: ''
# www.blender.org
mtllib rothenburg_10_5_upper_style01.mtl
o rothenburg_upper_YNG_XNG
v 0.000000 1.100000 -5.000000
v 0.000000 1.350000 -4.250000
v 0.000000 3.100000 -5.000000
v 0.000000 1.350000 -3.250000
v 0.000000 1.350000 -3.000000
v 0.000000 2.850000 -3.250000
v 0.000000 1.350000 -2.000000
v 0.000000 1.350000 -1.750000
v 0.000000 2.850000 -2.000000
v 0.000000 1.100000 0.000000
v 0.000000 1.350000 -0.750000
v 0.000000 2.850000 -0.750000
v 0.000000 2.850000 -4.250000
v 0.000000 2.850000 -3.000000
v 0.000000 2.850000 -1.750000
v 0.000000 3.100000 0.000000
v 10.000000 3.100000 -5.000000
v 9.500000 3.100000 -4.500000
v 10.000000 3.100000 0.000000
v 0.500000 3.100000 -4.500000
v 0.500000 3.100000 -0.500000
v 9.500000 3.100000 -0.500000
v 10.000000 1.100000 -5.000000
v 10.000000 1.100000 0.000000
v 4.000000 1.100000 0.000000
v 0.500000 1.100000 -0.500000
v 4.000000 1.100000 -0.500000
v 0.500000 1.100000 -4.500000
v 9.500000 1.100000 -0.500000
v 6.000000 1.100000 0.000000
v 6.000000 1.100000 -0.500000
v 9.500000 1.100000 -4.500000
v 7.750000 1.350000 0.000000
v 8.000000 2.850000 0.000000
v 7.750000 2.850000 0.000000
v 8.000000 1.350000 0.000000
v 3.250000 2.850000 0.000000
v 4.000000 2.100000 0.000000
v 6.750000 2.850000 0.000000
v 3.250000 1.350000 0.000000
v 2.250000 1.350000 0.000000
v 2.000000 1.350000 0.000000
v 2.250000 2.850000 0.000000
v 2.000000 2.850000 0.000000
v 1.000000 2.850000 0.000000
v 1.000000 1.350000 0.000000
v 9.000000 2.850000 0.000000
v 9.000000 1.350000 0.000000
v 6.000000 2.100000 0.000000
v 6.750000 1.350000 0.000000
v 0.500000 2.850000 -4.250000
v 0.500000 2.850000 -3.250000
v 0.500000 2.850000 -3.000000
v 0.500000 1.350000 -3.250000
v 0.500000 2.850000 -2.000000
v 0.500000 2.850000 -1.750000
v 0.500000 1.350000 -2.000000
v 0.500000 2.850000 -0.750000
v 0.500000 1.350000 -0.750000
v 0.500000 1.350000 -4.250000
v 0.500000 1.350000 -3.000000
v 0.500000 1.350000 -1.750000
v 2.250000 1.350000 -0.500000
v 2.000000 2.850000 -0.500000
v 2.250000 2.850000 -0.500000
v 2.000000 1.350000 -0.500000
v 6.750000 2.850000 -0.500000
v 6.000000 2.100000 -0.500000
v 3.250000 2.850000 -0.500000
v 6.750000 1.350000 -0.500000
v 7.750000 1.350000 -0.500000
v 8.000000 1.350000 -0.500000
v 7.750000 2.850000 -0.500000
v 8.000000 2.850000 -0.500000
v 9.000000 2.850000 -0.500000
v 9.000000 1.350000 -0.500000
v 1.000000 2.850000 -0.500000
v 1.000000 1.350000 -0.500000
v 4.000000 2.100000 -0.500000
v 3.250000 1.350000 -0.500000
vn -1.0000 0.0000 0.0000
vn 0.0000 1.0000 0.0000
vn 1.0000 0.0000 0.0000
vn 0.0000 0.0000 -1.0000
vn 0.0000 -1.0000 0.0000
vn 0.0000 0.0000 1.0000
usemtl None
s off
f 1//1 2//1 3//1
f 1//1 4//1 2//1
f 4//1 5//1 6//1
f 1//1 5//1 4//1
f 1//1 7//1 5//1
f 7//1 8//1 9//1
f 10//1 7//1 1//1
f 7//1 10//1 8//1
f 11//1 10//1 12//1
f 8//1 10//1 11//1
f 13//1 3//1 2//1
f 6//1 3//1 13//1
f 14//1 6//1 5//1
f 14//1 3//1 6//1
f 9//1 3//1 14//1
f 15//1 9//1 8//1
f 16//1 9//1 15//1
f 16//1 15//1 12//1
f 9//1 16//1 3//1
f 16//1 12//1 10//1
f 17//2 18//2 19//2
f 17//2 20//2 18//2
f 20//2 3//2 21//2
f 3//2 20//2 17//2
f 22//2 19//2 18//2
f 21//2 19//2 22//2
f 21//2 16//2 19//2
f 16//2 21//2 3//2
f 19//3 23//3 17//3
f 23//3 19//3 24//3
f 23//4 3//4 17//4
f 3//4 23//4 1//4
f 25//5 26//5 27//5
f 26//5 10//5 28//5
f 10//5 26//5 25//5
f 24//5 29//5 23//5
f 30//5 29//5 24//5
f 29//5 30//5 31//5
f 32//5 23//5 29//5
f 28//5 23//5 32//5
f 28//5 1//5 23//5
f 1//5 28//5 10//5
f 33//6 34//6 35//6
f 34//6 33//6 36//6
f 37//6 38//6 39//6
f 40//6 38//6 37//6
f 40//6 25//6 38//6
f 41//6 25//6 40//6
f 42//6 43//6 44//6
f 43//6 42//6 41//6
f 44//6 16//6 45//6
f 16//6 46//6 45//6
f 10//6 42//6 46//6
f 25//6 42//6 10//6
f 42//6 25//6 41//6
f 10//6 46//6 16//6
f 43//6 16//6 44//6
f 37//6 16//6 43//6
f 16//6 37//6 19//6
f 39//6 19//6 37//6
f 35//6 19//6 39//6
f 34//6 19//6 35//6
f 47//6 19//6 34//6
f 48//6 19//6 47//6
f 48//6 24//6 19//6
f 36//6 24//6 48//6
f 49//6 39//6 38//6
f 49//6 50//6 39//6
f 30//6 33//6 50//6
f 33//6 30//6 36//6
f 24//6 36//6 30//6
f 30//6 50//6 49//6
f 20//3 51//3 28//3
f 20//3 52//3 51//3
f 52//3 53//3 54//3
f 20//3 53//3 52//3
f 20//3 55//3 53//3
f 55//3 56//3 57//3
f 21//3 55//3 20//3
f 55//3 21//3 56//3
f 58//3 21//3 59//3
f 56//3 21//3 58//3
f 60//3 28//3 51//3
f 54//3 28//3 60//3
f 61//3 54//3 53//3
f 61//3 28//3 54//3
f 57//3 28//3 61//3
f 62//3 57//3 56//3
f 26//3 57//3 62//3
f 26//3 62//3 59//3
f 57//3 26//3 28//3
f 26//3 59//3 21//3
f 29//1 18//1 32//1
f 18//1 29//1 22//1
f 63//4 64//4 65//4
f 64//4 63//4 66//4
f 67//4 68//4 69//4
f 70//4 68//4 67//4
f 70//4 31//4 68//4
f 71//4 31//4 70//4
f 72//4 73//4 74//4
f 73//4 72//4 71//4
f 74//4 22//4 75//4
f 22//4 76//4 75//4
f 29//4 72//4 76//4
f 72//4 29//4 71//4
f 31//4 71//4 29//4
f 29//4 76//4 22//4
f 73//4 22//4 74//4
f 67//4 22//4 73//4
f 22//4 67//4 21//4
f 69//4 21//4 67//4
f 65//4 21//4 69//4
f 64//4 21//4 65//4
f 77//4 21//4 64//4
f 78//4 21//4 77//4
f 78//4 26//4 21//4
f 66//4 26//4 78//4
f 79//4 69//4 68//4
f 79//4 80//4 69//4
f 27//4 63//4 80//4
f 26//4 63//4 27//4
f 63//4 26//4 66//4
f 27//4 80//4 79//4
f 28//6 18//6 20//6
f 18//6 28//6 32//6
f 59//4 12//4 58//4
f 12//4 59//4 11//4
f 12//5 56//5 58//5
f 56//5 12//5 15//5
f 8//6 56//6 15//6
f 56//6 8//6 62//6
f 8//2 59//2 62//2
f 59//2 8//2 11//2
f 57//4 9//4 55//4
f 9//4 57//4 7//4
f 9//5 53//5 55//5
f 53//5 9//5 14//5
f 5//6 53//6 14//6
f 53//6 5//6 61//6
f 5//2 57//2 61//2
f 57//2 5//2 7//2
f 54//4 6//4 52//4
f 6//4 54//4 4//4
f 6//5 51//5 52//5
f 51//5 6//5 13//5
f 2//6 51//6 13//6
f 51//6 2//6 60//6
f 2//2 54//2 60//2
f 54//2 2//2 4//2
f 45//3 78//3 77//3
f 78//3 45//3 46//3
f 45//5 64//5 44//5
f 64//5 45//5 77//5
f 42//1 64//1 66//1
f 64//1 42//1 44//1
f 78//2 42//2 66//2
f 42//2 78//2 46//2
f 43//3 63//3 65//3
f 63//3 43//3 41//3
f 43//5 69//5 37//5
f 69//5 43//5 65//5
f 40//1 69//1 80//1
f 69//1 40//1 37//1
f 63//2 40//2 80//2
f 40//2 63//2 41//2
f 39//3 70//3 67//3
f 70//3 39//3 50//3
f 39//5 73//5 35//5
f 73//5 39//5 67//5
f 33//1 73//1 71//1
f 73//1 33//1 35//1
f 70//2 33//2 71//2
f 33//2 70//2 50//2
f 34//3 72//3 74//3
f 72//3 34//3 36//3
f 34//5 75//5 47//5
f 75//5 34//5 74//5
f 48//1 75//1 76//1
f 75//1 48//1 47//1
f 72//2 48//2 76//2
f 48//2 72//2 36//2
f 38//3 27//3 79//3
f 27//3 38//3 25//3
f 38//5 68//5 49//5
f 68//5 38//5 79//5
f 30//1 68//1 31//1
f 68//1 30//1 49//1
