# Blender v2.79 (sub 0) OBJ File: ''
# www.blender.org
mtllib rothenburg_10_5_lower.mtl
o Rothenburg_Lower
v 0.000000 0.100000 0.000000
v 0.000000 1.100000 -5.000000
v 0.000000 0.100000 -5.000000
v 0.000000 1.100000 0.000000
v 10.000000 1.100000 -5.000000
v 9.500000 1.100000 -4.500000
v 10.000000 1.100000 0.000000
v 0.500000 1.100000 -4.500000
v 0.500000 1.100000 -0.500000
v 9.500000 1.100000 -0.500000
v 6.000000 1.100000 0.000000
v 6.000000 1.100000 -0.500000
v 4.000000 1.100000 0.000000
v 4.000000 1.100000 -0.500000
v 10.000000 0.100000 -5.000000
v 10.000000 0.100000 0.000000
v 4.000000 0.100000 0.000000
v 0.500000 0.100000 -0.500000
v 4.000000 0.100000 -0.500000
v 0.500000 0.100000 -4.500000
v 9.500000 0.100000 -0.500000
v 6.000000 0.100000 0.000000
v 6.000000 0.100000 -0.500000
v 9.500000 0.100000 -4.500000
vn -1.0000 0.0000 0.0000
vn 0.0000 1.0000 0.0000
vn 1.0000 0.0000 0.0000
vn 0.0000 0.0000 -1.0000
vn 0.0000 -1.0000 0.0000
vn 0.0000 0.0000 1.0000
usemtl None
s off
f 1//1 2//1 3//1
f 2//1 1//1 4//1
f 5//2 6//2 7//2
f 5//2 8//2 6//2
f 8//2 2//2 9//2
f 2//2 8//2 5//2
f 10//2 7//2 6//2
f 11//2 10//2 12//2
f 10//2 11//2 7//2
f 9//2 13//2 14//2
f 9//2 4//2 13//2
f 4//2 9//2 2//2
f 7//3 15//3 5//3
f 15//3 7//3 16//3
f 15//4 2//4 5//4
f 2//4 15//4 3//4
f 17//5 18//5 19//5
f 18//5 1//5 20//5
f 1//5 18//5 17//5
f 16//5 21//5 15//5
f 22//5 21//5 16//5
f 21//5 22//5 23//5
f 24//5 15//5 21//5
f 20//5 15//5 24//5
f 20//5 3//5 15//5
f 3//5 20//5 1//5
f 1//6 13//6 4//6
f 13//6 1//6 17//6
f 22//6 7//6 11//6
f 7//6 22//6 16//6
f 9//3 20//3 8//3
f 20//3 9//3 18//3
f 21//1 6//1 24//1
f 6//1 21//1 10//1
f 20//6 6//6 8//6
f 6//6 20//6 24//6
f 19//4 9//4 14//4
f 9//4 19//4 18//4
f 21//4 12//4 10//4
f 12//4 21//4 23//4
f 13//3 19//3 14//3
f 19//3 13//3 17//3
f 22//1 12//1 23//1
f 12//1 22//1 11//1
