# Blender v2.79 (sub 0) OBJ File: 'rocks.blend'
# www.blender.org
mtllib rocks.mtl
o Cube
v 0.292097 -0.886120 -0.163219
v 0.107590 -0.625007 0.339327
v -0.372821 -0.692219 -0.463070
v 0.828124 -0.621581 -0.444769
v -0.036379 0.999239 0.673511
v 0.389368 0.502489 -0.239648
v 0.115786 0.844111 -0.736639
v -0.049283 1.226604 0.027465
v 0.611746 0.744581 0.321386
v 1.045028 -0.208795 -0.600688
v 0.662342 0.445146 -0.070472
v 0.405675 -0.091426 0.196462
v 0.214456 -0.186621 0.590856
v 0.740595 0.255470 0.313845
v -0.104379 0.564195 0.893248
v -0.475867 -0.377369 0.860854
v -0.528414 0.777788 -0.153082
v -0.424078 0.428715 0.119394
v -0.707552 -0.120990 0.453998
v -0.241470 0.408242 -0.424490
v -0.876863 -0.100931 -0.448667
v 0.187931 0.278579 -0.637838
v -0.120411 0.306856 -0.812329
v -0.359291 0.131290 -0.676809
v 0.686449 0.294420 -0.688028
v 0.226179 -0.266750 -0.912163
v 0.421824 0.559203 -0.636435
vn -0.4655 -0.7817 -0.4150
vn 0.6555 -0.7442 -0.1282
vn 0.1652 -0.9841 0.0651
vn 0.6655 -0.5443 0.5107
vn 0.6219 -0.3782 0.6856
vn 0.2980 -0.7865 0.5409
vn -0.3970 -0.4737 0.7861
vn -0.0439 0.9963 -0.0729
vn 0.6235 0.4706 -0.6243
vn 0.0782 0.5897 -0.8038
vn -0.8262 0.5430 -0.1503
vn -0.1622 0.7060 0.6894
vn -0.6353 0.4784 0.6062
vn 0.8026 0.5381 0.2574
vn 0.7690 0.6040 -0.2091
vn 0.9153 -0.0942 -0.3916
vn 0.8560 -0.0573 0.5137
vn 0.5095 0.5494 -0.6623
vn 0.6667 0.7084 -0.2317
vn -0.1770 0.3005 0.9372
vn -0.9448 -0.0420 0.3250
vn -0.4670 0.4960 -0.7320
vn -0.5012 0.1985 -0.8422
vn -0.8939 -0.1144 -0.4334
vn 0.2250 0.2027 -0.9530
vn -0.2988 0.3088 -0.9030
vn 0.0012 -0.2402 -0.9707
usemtl Material
s 1
f 3//1 4//2 1//3
f 12//4 13//5 2//6
f 4//2 2//6 1//3
f 2//6 16//7 3//1
f 8//8 27//9 7//10
f 7//10 17//11 8//8
f 17//11 5//12 8//8
f 18//13 5//12 17//11
f 8//8 9//14 11//15
f 4//2 10//16 14//17
f 10//16 25//18 11//15
f 11//15 25//18 6//19
f 10//16 11//15 14//17
f 11//15 9//14 14//17
f 13//5 14//17 15//20
f 15//20 9//14 5//12
f 15//20 14//17 9//14
f 15//20 19//21 16//7
f 17//11 19//21 18//13
f 3//1 16//7 19//21
f 20//22 24//23 17//11
f 21//24 3//1 19//21
f 17//11 24//23 21//24
f 22//25 27//9 25//18
f 23//26 7//10 22//25
f 7//10 27//9 22//25
f 26//27 24//23 23//26
f 26//27 23//26 22//25
f 3//1 26//27 4//2
f 4//2 12//4 2//6
f 1//3 2//6 3//1
f 3//1 24//23 26//27
f 3//1 21//24 24//23
f 8//8 6//19 27//9
f 7//10 20//22 17//11
f 7//10 23//26 20//22
f 6//19 8//8 11//15
f 8//8 5//12 9//14
f 6//19 25//18 27//9
f 14//17 12//4 4//2
f 13//5 12//4 14//17
f 15//20 18//13 19//21
f 15//20 5//12 18//13
f 15//20 16//7 13//5
f 13//5 16//7 2//6
f 17//11 21//24 19//21
f 22//25 25//18 26//27
f 25//18 10//16 26//27
f 26//27 10//16 4//2
f 24//23 20//22 23//26
